#define icon_width 60
#define icon_height 60
static unsigned char icon_bits[]={  
0x07, 0x00, 0x00, 0x00, 0x00, 0x00, 0x00, 0x0E, 0x01, 0x00, 0x00, 0x00, 
  0x00, 0x00, 0x00, 0x08, 0x81, 0xFF, 0xFF, 0xFF, 0xFF, 0xFF, 0x1F, 0x08, 
  0x80, 0xFF, 0xFF, 0xFF, 0xFF, 0xFF, 0x1F, 0x00, 0x80, 0xFF, 0xFF, 0xFF, 
  0xFF, 0xFF, 0x1F, 0x00, 0x80, 0xFF, 0xFF, 0xFF, 0xFF, 0xFF, 0x1F, 0x00, 
  0x00, 0x00, 0x00, 0xF0, 0x00, 0x00, 0x00, 0x00, 0x00, 0x00, 0x00, 0xF0, 
  0x00, 0x00, 0x00, 0x00, 0x00, 0x00, 0x00, 0xF0, 0x00, 0x00, 0x00, 0x00, 
  0x00, 0x00, 0x00, 0xF0, 0x00, 0x00, 0x00, 0x00, 0x00, 0x00, 0x00, 0xF0, 
  0x00, 0x00, 0x00, 0x00, 0x00, 0x00, 0x00, 0xF0, 0x00, 0x00, 0x00, 0x00, 
  0x00, 0x00, 0x00, 0xF0, 0x00, 0x00, 0x00, 0x00, 0x00, 0x00, 0x00, 0xF0, 
  0x00, 0x00, 0x00, 0x00, 0x00, 0x00, 0x00, 0xF0, 0x00, 0x00, 0x00, 0x00, 
  0x00, 0x00, 0x00, 0xF0, 0x00, 0x00, 0x00, 0x00, 0x00, 0x00, 0x00, 0xF0, 
  0x00, 0x00, 0x00, 0x00, 0x00, 0x00, 0x00, 0xF0, 0x00, 0x00, 0x00, 0x00, 
  0x00, 0x00, 0x00, 0xF0, 0x00, 0x00, 0x00, 0x00, 0x00, 0x00, 0x00, 0xF0, 
  0x00, 0x00, 0x00, 0x00, 0x00, 0x00, 0x00, 0x00, 0x00, 0x00, 0x00, 0x00, 
  0x00, 0x00, 0x1C, 0xF0, 0x80, 0x03, 0x00, 0x00, 0x00, 0x00, 0x3C, 0xF0, 
  0xC0, 0x03, 0x00, 0x00, 0x00, 0x00, 0x3C, 0xF8, 0xC1, 0x03, 0x00, 0x00, 
  0x00, 0x00, 0x7C, 0xF8, 0xE1, 0x03, 0x00, 0x00, 0x00, 0x00, 0x7C, 0xF8, 
  0xE1, 0x03, 0x00, 0x00, 0x00, 0x00, 0x78, 0xF8, 0xE1, 0x01, 0x00, 0x00, 
  0x00, 0x00, 0x78, 0xFC, 0xE3, 0x01, 0x00, 0x00, 0x00, 0x00, 0x78, 0x9C, 
  0xE3, 0x01, 0x00, 0x00, 0x00, 0x00, 0xF8, 0x9C, 0xF3, 0x01, 0x00, 0x00, 
  0x00, 0x00, 0xF0, 0x9C, 0xF3, 0x00, 0x00, 0x00, 0x00, 0x00, 0xF0, 0x9E, 
  0xF7, 0x00, 0x00, 0x00, 0x00, 0x00, 0xF0, 0x0E, 0xF7, 0x00, 0x00, 0x00, 
  0x00, 0x00, 0xF0, 0x0F, 0xFF, 0x00, 0x00, 0x00, 0x00, 0x00, 0xE0, 0x0F, 
  0x7F, 0x00, 0x00, 0x00, 0x00, 0x00, 0xE0, 0x0F, 0x7F, 0x00, 0x00, 0x00, 
  0x00, 0x00, 0xE0, 0x07, 0x7E, 0x00, 0x00, 0x00, 0x00, 0x00, 0xE0, 0x07, 
  0x7E, 0x00, 0x00, 0x00, 0x00, 0x00, 0xC0, 0x07, 0x3E, 0x00, 0x00, 0x00, 
  0x00, 0x00, 0x00, 0x00, 0x00, 0x00, 0x00, 0x00, 0x80, 0xFF, 0xFF, 0xFF, 
  0xFF, 0xFF, 0x1F, 0x00, 0x80, 0xFF, 0xFF, 0xFF, 0xFF, 0xFF, 0x1F, 0x00, 
  0x80, 0xFF, 0xFF, 0xFF, 0xFF, 0xFF, 0x1F, 0x00, 0x80, 0xFF, 0xFF, 0xFF, 
  0xFF, 0xFF, 0x1F, 0x00, 0x00, 0x00, 0x00, 0xF0, 0x00, 0x00, 0x00, 0x00, 
  0x00, 0x00, 0x00, 0xF0, 0x00, 0x00, 0x00, 0x00, 0x00, 0x00, 0x00, 0xF0, 
  0x00, 0x00, 0x00, 0x00, 0x00, 0x00, 0x00, 0xF0, 0x00, 0x00, 0x00, 0x00, 
  0x00, 0x00, 0x00, 0xF0, 0x00, 0x00, 0x00, 0x00, 0x00, 0x00, 0x00, 0xF0, 
  0x00, 0x00, 0x00, 0x00, 0x00, 0x00, 0x00, 0xF0, 0x00, 0x00, 0x00, 0x00, 
  0x00, 0x00, 0x00, 0xF0, 0x00, 0x00, 0x00, 0x00, 0x00, 0x00, 0x00, 0xF0, 
  0x00, 0x00, 0x00, 0x00, 0x00, 0x00, 0x00, 0xF0, 0x00, 0x00, 0x00, 0x00, 
  0x00, 0x00, 0x00, 0xF0, 0x00, 0x00, 0x00, 0x00, 0x00, 0x00, 0x00, 0xF0, 
  0x00, 0x00, 0x00, 0x00, 0x00, 0x00, 0x00, 0xF0, 0x00, 0x00, 0x00, 0x00, 
  0x01, 0x00, 0x00, 0xF0, 0x00, 0x00, 0x00, 0x08, 0x01, 0x00, 0x00, 0x00, 
  0x00, 0x00, 0x00, 0x08, 0x07, 0x00, 0x00, 0x00, 0x00, 0x00, 0x00, 0x0E, 
  };